<svg id="Pause_btn" xmlns="http://www.w3.org/2000/svg" xmlns:xlink="http://www.w3.org/1999/xlink" width="58" height="68" viewBox="0 0 58 68">
  <defs>
    <clipPath id="clip-path">
      <rect id="사각형_18" data-name="사각형 18" width="58" height="68" fill="none"/>
    </clipPath>
    <clipPath id="clip-path-2">
      <rect id="사각형_17" data-name="사각형 17" width="57.748" height="67.725" fill="none"/>
    </clipPath>
  </defs>
  <g id="그룹_41" data-name="그룹 41" clip-path="url(#clip-path)">
    <g id="그룹_40" data-name="그룹 40" transform="translate(0 -0.001)">
      <g id="그룹_39" data-name="그룹 39" transform="translate(0 0.138)" clip-path="url(#clip-path-2)">
        <path id="패스_20" data-name="패스 20" d="M48.507,33.181h0a7.65,7.65,0,0,1-10.54,2.433L3.6,14.136A7.648,7.648,0,0,1,11.7,1.163L46.075,22.641a7.649,7.649,0,0,1,2.433,10.54" transform="matrix(0.53, 0.848, -0.848, 0.53, 45.685, 3.057)" fill="#fff"/>
        <path id="패스_21" data-name="패스 21" d="M48.507,33.181h0a7.65,7.65,0,0,1-10.54,2.433L3.6,14.136A7.648,7.648,0,0,1,11.7,1.163L46.075,22.641a7.649,7.649,0,0,1,2.433,10.54" transform="matrix(0.53, 0.848, -0.848, 0.53, 16.93, 3.057)" fill="#fff"/>
      </g>
    </g>
  </g>
</svg>
